C:\GBW_MyPrograms\KinderuniversiteitApp\Resultaten\Ellis_v10102025\Maui\Maui_v1.mot
version=1
nRows=13
nColumns=29
inDegrees=yes
endheader
                time	         pelvis_tilt	           pelvis_tx	           pelvis_ty	       hip_flexion_l	       hip_flexion_r	        knee_angle_l	        knee_angle_r	       ankle_angle_l	       ankle_angle_r	    lumbar_extension	hamstrings_r/activation	bifemsh_r/activation	glut_max_r/activation	iliopsoas_r/activation	rect_fem_r/activation	  vasti_r/activation	gastroc_r/activation	 soleus_r/activation	tib_ant_r/activation	hamstrings_l/activation	bifemsh_l/activation	glut_max_l/activation	iliopsoas_l/activation	rect_fem_l/activation	  vasti_l/activation	gastroc_l/activation	 soleus_l/activation	tib_ant_l/activation	
          0.00000000	          2.89237801	          0.00000000	          0.93035664	        -25.99117726	          5.64969282	         -0.71597458	          4.95494752	        -19.33355113	         -8.06764061	        -12.95761498	          0.14648591	          0.20795406	          0.06703474	          0.05123126	          0.08506902	          0.18862419	          0.11070469	          0.05136309	          0.17539183	          0.05000012	          0.07776455	          0.05000004	          0.31024851	          0.14725536	          0.05000004	          0.13433976	          0.20696082	          0.05000001	
          0.00852533	          2.65800138	          0.01412944	          0.92882453	        -25.61056739	          5.43355202	         -2.28771480	          4.90209501	        -20.34262524	         -8.04950324	        -12.37141031	          0.14810965	          0.23966273	          0.07884641	          0.05078193	          0.07448547	          0.16515721	          0.11323507	          0.05000001	          0.18354534	          0.05000013	          0.06809009	          0.05000003	          0.29467226	          0.17587985	          0.05000004	          0.11762636	          0.20626473	          0.05000000	
          0.01705067	          2.41134004	          0.02871265	          0.92744228	        -25.20588649	          5.10803257	         -3.86034321	          4.36197139	        -21.57091760	         -7.83718125	        -11.71284696	          0.14291995	          0.26067375	          0.08750642	          0.05000011	          0.06521864	          0.14460978	          0.12045855	          0.05000040	          0.17632260	          0.05000016	          0.05961907	          0.05719663	          0.27432295	          0.18187569	          0.05710445	          0.10299230	          0.18060309	          0.05757736	
          0.02557600	          2.15674120	          0.04369340	          0.92617318	        -24.86518980	          4.58870450	         -5.30909229	          3.91491241	        -22.85023266	         -7.29848179	        -10.99279798	          0.13458229	          0.28575720	          0.08554389	          0.05000004	          0.05710470	          0.12661868	          0.12723765	          0.05000005	          0.16676829	          0.05627708	          0.06725633	          0.10906115	          0.25972930	          0.15924833	          0.05000003	          0.09017889	          0.15813401	          0.10571049	
          0.03410134	          1.89636046	          0.05876829	          0.92507056	        -24.57513591	          3.88649399	         -6.66441556	          3.81574089	        -23.69347202	         -6.62566104	        -10.25251121	          0.12586637	          0.32500494	          0.07490131	          0.05000009	          0.05000025	          0.11086588	          0.14135644	          0.05090082	          0.15127826	          0.05132189	          0.06101581	          0.15129004	          0.24782965	          0.21976457	          0.05710451	          0.07895961	          0.14459631	          0.09255892	
          0.04262667	          1.63155415	          0.07370558	          0.92428203	        -24.46620687	          3.08137705	         -7.39641844	          3.95460926	        -23.68489023	         -6.08538490	         -9.52357379	          0.11872142	          0.37120335	          0.06696357	          0.05000004	          0.05000004	          0.09707291	          0.15435514	          0.06645315	          0.14213284	          0.06943460	          0.09380503	          0.18649386	          0.24117305	          0.19242349	          0.05000006	          0.06913615	          0.12660689	          0.12239564	
          0.05115201	          1.36616910	          0.08835330	          0.92401746	        -24.51495577	          2.25146595	         -7.51383933	          4.20592363	        -23.21105559	         -5.77077936	         -8.83027235	          0.11209847	          0.41910049	          0.06471083	          0.05000003	          0.05000006	          0.08499595	          0.16667508	          0.07471590	          0.13692005	          0.08010931	          0.11799399	          0.20978072	          0.23553754	          0.21813307	          0.05000005	          0.06053484	          0.11085555	          0.11832876	
          0.05967734	          1.10569972	          0.10260270	          0.92434414	        -24.62835042	          1.47455235	         -7.28738506	          4.41602135	        -22.59492048	         -5.60228462	         -8.19222157	          0.10615648	          0.46051722	          0.06703350	          0.05000003	          0.05000007	          0.07442151	          0.17606643	          0.08286522	          0.13436863	          0.09131606	          0.13940176	          0.22581155	          0.23855109	          0.21765821	          0.05000009	          0.05384421	          0.09706387	          0.11680256	
          0.06820268	          0.85693108	          0.11641777	          0.92521073	        -24.77170280	          0.80724393	         -6.81471542	          4.46560199	        -21.88284127	         -5.53299288	         -7.62064236	          0.10082419	          0.48871329	          0.07071097	          0.05000004	          0.05000009	          0.06516268	          0.18323432	          0.09153922	          0.12672654	          0.10133321	          0.15401233	          0.23632825	          0.24491738	          0.21440387	          0.05000013	          0.05000007	          0.08498802	          0.11431088	
          0.07672801	          0.62673102	          0.12978869	          0.92653939	        -24.90891256	          0.27365539	         -6.20953926	          4.30080175	        -21.19575117	         -5.56482562	         -7.12362900	          0.09622189	          0.50188538	          0.07260353	          0.05000006	          0.05000013	          0.05705587	          0.18653045	          0.09887612	          0.11096033	          0.11063134	          0.13485177	          0.24142095	          0.25088479	          0.20795707	          0.05000010	          0.05000004	          0.07441456	          0.11324995	
          0.08525335	          0.42075856	          0.14273225	          0.92826284	        -25.02750811	         -0.14024082	         -5.52030169	          3.94242186	        -20.52972226	         -5.72709285	         -6.70473600	          0.09222520	          0.50238146	          0.07416906	          0.05000011	          0.05000018	          0.05000064	          0.18574052	          0.10460032	          0.09715560	          0.11921397	          0.11807486	          0.24439885	          0.25705352	          0.20037398	          0.05000010	          0.05000007	          0.06515655	          0.11173513	
          0.09377868	          0.24291688	          0.15527472	          0.93033233	        -25.11983645	         -0.47024384	         -4.76387723	          3.45000883	        -19.84950142	         -6.02659234	         -6.36455112	          0.08936512	          0.49547078	          0.07406444	          0.05000012	          0.05000020	          0.05000040	          0.18118420	          0.10830195	          0.08506834	          0.12843310	          0.10338525	          0.24534087	          0.26222740	          0.19155912	          0.05000006	          0.05000013	          0.05705038	          0.11085885	
          0.10230402	          0.09596299	          0.16744579	          0.93271340	        -25.17118600	         -0.76357135	         -3.96209193	          2.90464585	        -19.14627488	         -6.47240071	         -6.10217322	          0.08641024	          0.48753767	          0.07284956	          0.05000072	          0.05000029	          0.05000057	          0.17415820	          0.10913151	          0.07448487	          0.13645880	          0.09052314	          0.24555939	          0.26734064	          0.18294450	          0.05000006	          0.05000025	          0.05142939	          0.11042378	
